  0
SECTION
  2
HEADER
  9
$ACADVER
  1
AC1024
  9
$ACADMAINTVER
 70
6
  9
$DWGCODEPAGE
  3
ANSI_1252
  9
$LASTSAVEDBY
  1
ezdxf
  9
$INSBASE
 10
0.0
 20
0.0
 30
0.0
  9
$EXTMIN
 10
1e+20
 20
1e+20
 30
1e+20
  9
$EXTMAX
 10
-1e+20
 20
-1e+20
 30
-1e+20
  9
$LIMMIN
 10
0.0
 20
0.0
  9
$LIMMAX
 10
420.0
 20
297.0
  9
$ORTHOMODE
 70
0
  9
$REGENMODE
 70
1
  9
$FILLMODE
 70
1
  9
$QTEXTMODE
 70
0
  9
$MIRRTEXT
 70
1
  9
$LTSCALE
 40
1.0
  9
$ATTMODE
 70
1
  9
$TEXTSIZE
 40
2.5
  9
$TRACEWID
 40
1.0
  9
$TEXTSTYLE
  7
Standard
  9
$CLAYER
  8
0
  9
$CELTYPE
  6
ByLayer
  9
$CECOLOR
 62
256
  9
$CELTSCALE
 40
1.0
  9
$DISPSILH
 70
0
  9
$DIMSCALE
 40
1.0
  9
$DIMASZ
 40
2.5
  9
$DIMEXO
 40
0.625
  9
$DIMDLI
 40
3.75
  9
$DIMRND
 40
0.0
  9
$DIMDLE
 40
0.0
  9
$DIMEXE
 40
1.25
  9
$DIMTP
 40
0.0
  9
$DIMTM
 40
0.0
  9
$DIMTXT
 40
2.5
  9
$DIMCEN
 40
2.5
  9
$DIMTSZ
 40
0.0
  9
$DIMTOL
 70
0
  9
$DIMLIM
 70
0
  9
$DIMTIH
 70
0
  9
$DIMTOH
 70
0
  9
$DIMSE1
 70
0
  9
$DIMSE2
 70
0
  9
$DIMTAD
 70
1
  9
$DIMZIN
 70
8
  9
$DIMBLK
  1

  9
$DIMASO
 70
1
  9
$DIMSHO
 70
1
  9
$DIMPOST
  1

  9
$DIMAPOST
  1

  9
$DIMALT
 70
0
  9
$DIMALTD
 70
3
  9
$DIMALTF
 40
0.03937007874
  9
$DIMLFAC
 40
1.0
  9
$DIMTOFL
 70
1
  9
$DIMTVP
 40
0.0
  9
$DIMTIX
 70
0
  9
$DIMSOXD
 70
0
  9
$DIMSAH
 70
0
  9
$DIMBLK1
  1

  9
$DIMBLK2
  1

  9
$DIMSTYLE
  2
ISO-25
  9
$DIMCLRD
 70
0
  9
$DIMCLRE
 70
0
  9
$DIMCLRT
 70
0
  9
$DIMTFAC
 40
1.0
  9
$DIMGAP
 40
0.625
  9
$DIMJUST
 70
0
  9
$DIMSD1
 70
0
  9
$DIMSD2
 70
0
  9
$DIMTOLJ
 70
0
  9
$DIMTZIN
 70
8
  9
$DIMALTZ
 70
0
  9
$DIMALTTZ
 70
0
  9
$DIMUPT
 70
0
  9
$DIMDEC
 70
2
  9
$DIMTDEC
 70
2
  9
$DIMALTU
 70
2
  9
$DIMALTTD
 70
3
  9
$DIMTXSTY
  7
Standard
  9
$DIMAUNIT
 70
0
  9
$DIMADEC
 70
0
  9
$DIMALTRND
 40
0.0
  9
$DIMAZIN
 70
0
  9
$DIMDSEP
 70
44
  9
$DIMATFIT
 70
3
  9
$DIMFRAC
 70
0
  9
$DIMLDRBLK
  1

  9
$DIMLUNIT
 70
2
  9
$DIMLWD
 70
-2
  9
$DIMLWE
 70
-2
  9
$DIMTMOVE
 70
0
  9
$DIMFXL
 40
1.0
  9
$DIMFXLON
 70
0
  9
$DIMJOGANG
 40
0.785398163397
  9
$DIMTFILL
 70
0
  9
$DIMTFILLCLR
 70
0
  9
$DIMARCSYM
 70
0
  9
$DIMLTYPE
  6

  9
$DIMLTEX1
  6

  9
$DIMLTEX2
  6

  9
$DIMTXTDIRECTION
 70
0
  9
$LUNITS
 70
2
  9
$LUPREC
 70
4
  9
$SKETCHINC
 40
1.0
  9
$FILLETRAD
 40
10.0
  9
$AUNITS
 70
0
  9
$AUPREC
 70
2
  9
$MENU
  1
.
  9
$ELEVATION
 40
0.0
  9
$PELEVATION
 40
0.0
  9
$THICKNESS
 40
0.0
  9
$LIMCHECK
 70
0
  9
$CHAMFERA
 40
0.0
  9
$CHAMFERB
 40
0.0
  9
$CHAMFERC
 40
0.0
  9
$CHAMFERD
 40
0.0
  9
$SKPOLY
 70
0
  9
$TDCREATE
 40
2461320.732523148
  9
$TDUCREATE
 40
2458532.153996898
  9
$TDUPDATE
 40
2461320.7325347224
  9
$TDUUPDATE
 40
2458532.1544311
  9
$TDINDWG
 40
0.0
  9
$TDUSRTIMER
 40
0.0
  9
$USRTIMER
 70
1
  9
$ANGBASE
 50
0.0
  9
$ANGDIR
 70
0
  9
$PDMODE
 70
0
  9
$PDSIZE
 40
0.0
  9
$PLINEWID
 40
0.0
  9
$SPLFRAME
 70
0
  9
$SPLINETYPE
 70
6
  9
$SPLINESEGS
 70
8
  9
$HANDSEED
  5
AE
  9
$SURFTAB1
 70
6
  9
$SURFTAB2
 70
6
  9
$SURFTYPE
 70
6
  9
$SURFU
 70
6
  9
$SURFV
 70
6
  9
$UCSBASE
  2

  9
$UCSNAME
  2

  9
$UCSORG
 10
0.0
 20
0.0
 30
0.0
  9
$UCSXDIR
 10
1.0
 20
0.0
 30
0.0
  9
$UCSYDIR
 10
0.0
 20
1.0
 30
0.0
  9
$UCSORTHOREF
  2

  9
$UCSORTHOVIEW
 70
0
  9
$UCSORGTOP
 10
0.0
 20
0.0
 30
0.0
  9
$UCSORGBOTTOM
 10
0.0
 20
0.0
 30
0.0
  9
$UCSORGLEFT
 10
0.0
 20
0.0
 30
0.0
  9
$UCSORGRIGHT
 10
0.0
 20
0.0
 30
0.0
  9
$UCSORGFRONT
 10
0.0
 20
0.0
 30
0.0
  9
$UCSORGBACK
 10
0.0
 20
0.0
 30
0.0
  9
$PUCSBASE
  2

  9
$PUCSNAME
  2

  9
$PUCSORG
 10
0.0
 20
0.0
 30
0.0
  9
$PUCSXDIR
 10
1.0
 20
0.0
 30
0.0
  9
$PUCSYDIR
 10
0.0
 20
1.0
 30
0.0
  9
$PUCSORTHOREF
  2

  9
$PUCSORTHOVIEW
 70
0
  9
$PUCSORGTOP
 10
0.0
 20
0.0
 30
0.0
  9
$PUCSORGBOTTOM
 10
0.0
 20
0.0
 30
0.0
  9
$PUCSORGLEFT
 10
0.0
 20
0.0
 30
0.0
  9
$PUCSORGRIGHT
 10
0.0
 20
0.0
 30
0.0
  9
$PUCSORGFRONT
 10
0.0
 20
0.0
 30
0.0
  9
$PUCSORGBACK
 10
0.0
 20
0.0
 30
0.0
  9
$USERI1
 70
0
  9
$USERI2
 70
0
  9
$USERI3
 70
0
  9
$USERI4
 70
0
  9
$USERI5
 70
0
  9
$USERR1
 40
0.0
  9
$USERR2
 40
0.0
  9
$USERR3
 40
0.0
  9
$USERR4
 40
0.0
  9
$USERR5
 40
0.0
  9
$WORLDVIEW
 70
1
  9
$SHADEDGE
 70
3
  9
$SHADEDIF
 70
70
  9
$TILEMODE
 70
1
  9
$MAXACTVP
 70
64
  9
$PINSBASE
 10
0.0
 20
0.0
 30
0.0
  9
$PLIMCHECK
 70
0
  9
$PEXTMIN
 10
1e+20
 20
1e+20
 30
1e+20
  9
$PEXTMAX
 10
-1e+20
 20
-1e+20
 30
-1e+20
  9
$PLIMMIN
 10
0.0
 20
0.0
  9
$PLIMMAX
 10
420.0
 20
297.0
  9
$UNITMODE
 70
0
  9
$VISRETAIN
 70
1
  9
$PLINEGEN
 70
0
  9
$PSLTSCALE
 70
1
  9
$TREEDEPTH
 70
3020
  9
$CMLSTYLE
  2
Standard
  9
$CMLJUST
 70
0
  9
$CMLSCALE
 40
20.0
  9
$PROXYGRAPHICS
 70
1
  9
$MEASUREMENT
 70
1
  9
$CELWEIGHT
370
-1
  9
$ENDCAPS
280
0
  9
$JOINSTYLE
280
0
  9
$LWDISPLAY
290
0
  9
$INSUNITS
 70
4
  9
$HYPERLINKBASE
  1

  9
$STYLESHEET
  1

  9
$XEDIT
290
1
  9
$CEPSNTYPE
380
0
  9
$PSTYLEMODE
290
1
  9
$FINGERPRINTGUID
  2
{F521EB7A-89D4-4168-AD55-069E3240B737}
  9
$VERSIONGUID
  2
{5509323D-314D-4E6C-BE9C-069058A1040F}
  9
$EXTNAMES
290
1
  9
$PSVPSCALE
 40
0.0
  9
$OLESTARTUP
290
0
  9
$SORTENTS
280
127
  9
$INDEXCTL
280
0
  9
$HIDETEXT
280
1
  9
$XCLIPFRAME
280
1
  9
$HALOGAP
280
0
  9
$OBSCOLOR
 70
257
  9
$OBSLTYPE
280
0
  9
$INTERSECTIONDISPLAY
280
0
  9
$INTERSECTIONCOLOR
 70
257
  9
$DIMASSOC
280
2
  9
$PROJECTNAME
  1

  9
$CAMERADISPLAY
290
0
  9
$LENSLENGTH
 40
50.0
  9
$CAMERAHEIGHT
 40
0.0
  9
$STEPSPERSEC
 40
24.0
  9
$STEPSIZE
 40
100.0
  9
$3DDWFPREC
 40
2.0
  9
$PSOLWIDTH
 40
0.005
  9
$PSOLHEIGHT
 40
0.08
  9
$LOFTANG1
 40
1.570796326795
  9
$LOFTANG2
 40
1.570796326795
  9
$LOFTMAG1
 40
0.0
  9
$LOFTMAG2
 40
0.0
  9
$LOFTPARAM
 70
7
  9
$LOFTNORMALS
280
1
  9
$LATITUDE
 40
37.795
  9
$LONGITUDE
 40
-122.394
  9
$NORTHDIRECTION
 40
0.0
  9
$TIMEZONE
 70
-8000
  9
$LIGHTGLYPHDISPLAY
280
1
  9
$TILEMODELIGHTSYNCH
280
1
  9
$CMATERIAL
347
20
  9
$SOLIDHIST
280
0
  9
$SHOWHIST
280
1
  9
$DWFFRAME
280
2
  9
$DGNFRAME
280
2
  9
$REALWORLDSCALE
290
1
  9
$INTERFERECOLOR
 62
256
  9
$CSHADOW
280
0
  9
$SHADOWPLANELOCATION
 40
0.0
  0
ENDSEC
  0
SECTION
  2
CLASSES
  0
CLASS
  1
ACDBDICTIONARYWDFLT
  2
AcDbDictionaryWithDefault
  3
ObjectDBX Classes
 90
0
 91
0
280
0
281
0
  0
CLASS
  1
SUN
  2
AcDbSun
  3
SCENEOE
 90
1153
 91
0
280
0
281
0
  0
CLASS
  1
VISUALSTYLE
  2
AcDbVisualStyle
  3
ObjectDBX Classes
 90
4095
 91
0
280
0
281
0
  0
CLASS
  1
MATERIAL
  2
AcDbMaterial
  3
ObjectDBX Classes
 90
1153
 91
0
280
0
281
0
  0
CLASS
  1
SCALE
  2
AcDbScale
  3
ObjectDBX Classes
 90
1153
 91
0
280
0
281
0
  0
CLASS
  1
TABLESTYLE
  2
AcDbTableStyle
  3
ObjectDBX Classes
 90
4095
 91
0
280
0
281
0
  0
CLASS
  1
MLEADERSTYLE
  2
AcDbMLeaderStyle
  3
ACDB_MLEADERSTYLE_CLASS
 90
4095
 91
0
280
0
281
0
  0
CLASS
  1
DICTIONARYVAR
  2
AcDbDictionaryVar
  3
ObjectDBX Classes
 90
0
 91
0
280
0
281
0
  0
CLASS
  1
CELLSTYLEMAP
  2
AcDbCellStyleMap
  3
ObjectDBX Classes
 90
1152
 91
0
280
0
281
0
  0
CLASS
  1
MENTALRAYRENDERSETTINGS
  2
AcDbMentalRayRenderSettings
  3
SCENEOE
 90
1024
 91
0
280
0
281
0
  0
CLASS
  1
ACDBDETAILVIEWSTYLE
  2
AcDbDetailViewStyle
  3
ObjectDBX Classes
 90
1025
 91
0
280
0
281
0
  0
CLASS
  1
ACDBSECTIONVIEWSTYLE
  2
AcDbSectionViewStyle
  3
ObjectDBX Classes
 90
1025
 91
0
280
0
281
0
  0
CLASS
  1
RASTERVARIABLES
  2
AcDbRasterVariables
  3
ISM
 90
0
 91
0
280
0
281
0
  0
CLASS
  1
LAYOUT
  2
AcDbLayout
  3
ObjectDBX Classes
 90
0
 91
0
280
0
281
0
  0
CLASS
  1
ACDBPLACEHOLDER
  2
AcDbPlaceHolder
  3
ObjectDBX Classes
 90
0
 91
0
280
0
281
0
  0
ENDSEC
  0
SECTION
  2
TABLES
  0
TABLE
  2
VPORT
  5
8
330
0
100
AcDbSymbolTable
 70
1
  0
VPORT
  5
23
330
8
100
AcDbSymbolTableRecord
100
AcDbViewportTableRecord
  2
*Active
 70
0
 10
0.0
 20
0.0
 11
1.0
 21
1.0
 12
0.0
 22
0.0
 13
0.0
 23
0.0
 14
0.5
 24
0.5
 15
0.5
 25
0.5
 16
0.0
 26
0.0
 36
1.0
 17
0.0
 27
0.0
 37
0.0
 40
1000.0
 41
1.34
 42
50.0
 43
0.0
 44
0.0
 50
0.0
 51
0.0
 71
0
 72
1000
 73
1
 74
3
 75
0
 76
0
 77
0
 78
0
281
0
 65
0
146
0.0
  0
ENDTAB
  0
TABLE
  2
LTYPE
  5
2
330
0
100
AcDbSymbolTable
 70
3
  0
LTYPE
  5
24
330
2
100
AcDbSymbolTableRecord
100
AcDbLinetypeTableRecord
  2
ByBlock
 70
0
  3

 72
65
 73
0
 40
0.0
  0
LTYPE
  5
25
330
2
100
AcDbSymbolTableRecord
100
AcDbLinetypeTableRecord
  2
ByLayer
 70
0
  3

 72
65
 73
0
 40
0.0
  0
LTYPE
  5
26
330
2
100
AcDbSymbolTableRecord
100
AcDbLinetypeTableRecord
  2
Continuous
 70
0
  3

 72
65
 73
0
 40
0.0
  0
ENDTAB
  0
TABLE
  2
LAYER
  5
1
330
0
100
AcDbSymbolTable
 70
4
  0
LAYER
  5
27
330
1
100
AcDbSymbolTableRecord
100
AcDbLayerTableRecord
  2
0
 70
0
 62
7
  6
Continuous
370
-3
390
13
347
21
  0
LAYER
  5
28
330
1
100
AcDbSymbolTableRecord
100
AcDbLayerTableRecord
  2
Defpoints
 70
0
 62
7
  6
Continuous
290
0
370
-3
390
13
347
21
  0
LAYER
  5
2F
330
1
100
AcDbSymbolTableRecord
100
AcDbLayerTableRecord
  2
CUT
 70
0
 62
1
  6
Continuous
370
-3
390
13
347
21
  0
LAYER
  5
30
330
1
100
AcDbSymbolTableRecord
100
AcDbLayerTableRecord
  2
TEXT
 70
0
 62
7
  6
Continuous
370
-3
390
13
347
21
  0
ENDTAB
  0
TABLE
  2
STYLE
  5
5
330
0
100
AcDbSymbolTable
 70
1
  0
STYLE
  5
29
330
5
100
AcDbSymbolTableRecord
100
AcDbTextStyleTableRecord
  2
Standard
 70
0
 40
0.0
 41
1.0
 50
0.0
 71
0
 42
2.5
  3
txt
  4

  0
ENDTAB
  0
TABLE
  2
VIEW
  5
7
330
0
100
AcDbSymbolTable
 70
0
  0
ENDTAB
  0
TABLE
  2
UCS
  5
6
330
0
100
AcDbSymbolTable
 70
0
  0
ENDTAB
  0
TABLE
  2
APPID
  5
3
330
0
100
AcDbSymbolTable
 70
3
  0
APPID
  5
2A
330
3
100
AcDbSymbolTableRecord
100
AcDbRegAppTableRecord
  2
ACAD
 70
0
  0
APPID
  5
AB
330
3
100
AcDbSymbolTableRecord
100
AcDbRegAppTableRecord
  2
HATCHBACKGROUNDCOLOR
 70
0
  0
APPID
  5
AC
330
3
100
AcDbSymbolTableRecord
100
AcDbRegAppTableRecord
  2
EZDXF
 70
0
  0
ENDTAB
  0
TABLE
  2
DIMSTYLE
  5
4
330
0
100
AcDbSymbolTable
 70
1
100
AcDbDimStyleTable
  0
DIMSTYLE
105
2B
330
4
100
AcDbSymbolTableRecord
100
AcDbDimStyleTableRecord
  2
Standard
 70
0
 40
1.0
 41
2.5
 42
0.625
 43
3.75
 44
1.25
 45
0.0
 46
0.0
 47
0.0
 48
0.0
 49
2.5
140
2.5
141
2.5
142
0.0
143
0.03937007874
144
1.0
145
0.0
146
1.0
147
0.625
148
0.0
 69
0
 70
0
 71
0
 72
0
 73
0
 74
0
 75
0
 76
0
 77
1
 78
8
 79
3
170
0
171
3
172
1
173
0
174
0
175
0
176
0
177
0
178
0
179
2
271
2
272
2
273
2
274
3
275
0
276
0
277
2
278
44
279
0
280
0
281
0
282
0
283
0
284
8
285
0
286
0
288
0
289
3
290
0
371
-2
372
-2
  0
ENDTAB
  0
TABLE
  2
BLOCK_RECORD
  5
9
330
0
100
AcDbSymbolTable
 70
2
  0
BLOCK_RECORD
  5
17
330
9
100
AcDbSymbolTableRecord
100
AcDbBlockTableRecord
  2
*Model_Space
340
1A
 70
0
280
1
281
0
  0
BLOCK_RECORD
  5
1B
330
9
100
AcDbSymbolTableRecord
100
AcDbBlockTableRecord
  2
*Paper_Space
340
1E
 70
0
280
1
281
0
  0
ENDTAB
  0
ENDSEC
  0
SECTION
  2
BLOCKS
  0
BLOCK
  5
18
330
17
100
AcDbEntity
  8
0
100
AcDbBlockBegin
  2
*Model_Space
 70
0
 10
0.0
 20
0.0
 30
0.0
  3
*Model_Space
  1

  0
ENDBLK
  5
19
330
17
100
AcDbEntity
  8
0
100
AcDbBlockEnd
  0
BLOCK
  5
1C
330
1B
100
AcDbEntity
  8
0
100
AcDbBlockBegin
  2
*Paper_Space
 70
0
 10
0.0
 20
0.0
 30
0.0
  3
*Paper_Space
  1

  0
ENDBLK
  5
1D
330
1B
100
AcDbEntity
  8
0
100
AcDbBlockEnd
  0
ENDSEC
  0
SECTION
  2
ENTITIES
  0
LWPOLYLINE
  5
31
330
17
100
AcDbEntity
  8
CUT
100
AcDbPolyline
 90
12
 70
1
 10
0.0
 20
0.0
 10
1976.0
 20
0.0
 10
1976.0
 20
298.0
 42
0.41421356237309503
 10
1886.0
 20
388.0
 10
430.0
 20
388.0
 42
-0.41421356237309503
 10
340.0
 20
478.0
 10
340.0
 20
708.0
 42
-0.41421356237309503
 10
430.0
 20
798.0
 10
1886.0
 20
798.0
 42
0.41421356237309503
 10
1976.0
 20
888.0
 10
1976.0
 20
978.0
 10
0.0
 20
978.0
  0
TEXT
  5
32
330
17
100
AcDbEntity
  8
TEXT
100
AcDbText
 10
20.0
 20
20.0
 30
0.0
 40
25.0
  1
F1  1976x978x18  white
 11
20.0
 21
20.0
 31
0.0
100
AcDbText
  0
LWPOLYLINE
  5
33
330
17
100
AcDbEntity
  8
CUT
100
AcDbPolyline
 90
7
 70
1
 10
2036.0
 20
0.0
 10
4012.0
 20
0.0
 10
4012.0
 20
972.0
 10
3692.0
 20
972.0
 10
3692.0
 20
370.0
 42
-0.41421356237309503
 10
3602.0
 20
280.0
 10
2036.0
 20
280.0
  0
TEXT
  5
34
330
17
100
AcDbEntity
  8
TEXT
100
AcDbText
 10
2056.0
 20
20.0
 30
0.0
 40
25.0
  1
F2  1976x972x18  white
 11
2056.0
 21
20.0
 31
0.0
100
AcDbText
  0
LWPOLYLINE
  5
35
330
17
100
AcDbEntity
  8
CUT
100
AcDbPolyline
 90
4
 70
1
 10
4072.0
 20
0.0
 10
4462.0
 20
0.0
 10
4462.0
 20
692.0
 10
4072.0
 20
692.0
  0
TEXT
  5
36
330
17
100
AcDbEntity
  8
TEXT
100
AcDbText
 10
4092.0
 20
20.0
 30
0.0
 40
25.0
  1
F3  390x692x18  oak
 11
4092.0
 21
20.0
 31
0.0
100
AcDbText
  0
LWPOLYLINE
  5
37
330
17
100
AcDbEntity
  8
CUT
100
AcDbPolyline
 90
8
 70
1
 10
4522.0
 20
19.999999999999996
 42
0.41421356237309503
 10
4542.0
 20
0.0
 10
4662.0
 20
0.0
 42
0.41421356237309503
 10
4682.0
 20
19.999999999999996
 10
4682.0
 20
170.0
 42
0.41421356237309503
 10
4662.0
 20
190.0
 10
4542.0
 20
190.0
 42
0.41421356237309503
 10
4522.0
 20
170.0
  0
TEXT
  5
38
330
17
100
AcDbEntity
  8
TEXT
100
AcDbText
 10
4542.0
 20
20.0
 30
0.0
 40
25.0
  1
N1  160x190x6  plate
 11
4542.0
 21
20.0
 31
0.0
100
AcDbText
  0
LWPOLYLINE
  5
39
330
17
100
AcDbEntity
  8
CUT
100
AcDbPolyline
 90
8
 70
1
 10
4742.0
 20
19.999999999999996
 42
0.41421356237309503
 10
4762.0
 20
0.0
 10
4882.0
 20
0.0
 42
0.41421356237309503
 10
4902.0
 20
19.999999999999996
 10
4902.0
 20
170.0
 42
0.41421356237309503
 10
4882.0
 20
190.0
 10
4762.0
 20
190.0
 42
0.41421356237309503
 10
4742.0
 20
170.0
  0
TEXT
  5
3A
330
17
100
AcDbEntity
  8
TEXT
100
AcDbText
 10
4762.0
 20
20.0
 30
0.0
 40
25.0
  1
N2  160x190x6  plate
 11
4762.0
 21
20.0
 31
0.0
100
AcDbText
  0
LWPOLYLINE
  5
3B
330
17
100
AcDbEntity
  8
CUT
100
AcDbPolyline
 90
4
 70
1
 10
4962.0
 20
0.0
 10
5902.0
 20
0.0
 10
5902.0
 20
1950.0
 10
4962.0
 20
1950.0
  0
TEXT
  5
3C
330
17
100
AcDbEntity
  8
TEXT
100
AcDbText
 10
4982.0
 20
20.0
 30
0.0
 40
25.0
  1
S1  940x1950x18  oak
 11
4982.0
 21
20.0
 31
0.0
100
AcDbText
  0
LWPOLYLINE
  5
3D
330
17
100
AcDbEntity
  8
CUT
100
AcDbPolyline
 90
8
 70
1
 10
5962.0
 20
0.0
 10
6902.0
 20
0.0
 10
6902.0
 20
1950.0
 10
6484.0
 20
1950.0
 42
0.41421356237309503
 10
6394.0
 20
1860.0
 10
6394.0
 20
1140.0
 42
-0.41421356237309503
 10
6304.0
 20
1050.0
 10
5962.0
 20
1050.0
  0
TEXT
  5
3E
330
17
100
AcDbEntity
  8
TEXT
100
AcDbText
 10
5982.0
 20
20.0
 30
0.0
 40
25.0
  1
S2  940x1950x18  oak
 11
5982.0
 21
20.0
 31
0.0
100
AcDbText
  0
LWPOLYLINE
  5
3F
330
17
100
AcDbEntity
  8
CUT
100
AcDbPolyline
 90
4
 70
1
 10
0.0
 20
2030.0
 10
1940.0
 20
2030.0
 10
1940.0
 20
2970.0
 10
0.0
 20
2970.0
  0
TEXT
  5
40
330
17
100
AcDbEntity
  8
TEXT
100
AcDbText
 10
20.0
 20
2050.0
 30
0.0
 40
25.0
  1
RF  1940x940x18  white
 11
20.0
 21
2050.0
 31
0.0
100
AcDbText
  0
LWPOLYLINE
  5
41
330
17
100
AcDbEntity
  8
CUT
100
AcDbPolyline
 90
4
 70
1
 10
2000.0
 20
2030.0
 10
3940.0
 20
2030.0
 10
3940.0
 20
2970.0
 10
2000.0
 20
2970.0
  0
TEXT
  5
42
330
17
100
AcDbEntity
  8
TEXT
100
AcDbText
 10
2020.0
 20
2050.0
 30
0.0
 40
25.0
  1
UD  1940x940x18  oak
 11
2020.0
 21
2050.0
 31
0.0
100
AcDbText
  0
LWPOLYLINE
  5
43
330
17
100
AcDbEntity
  8
CUT
100
AcDbPolyline
 90
4
 70
1
 10
4000.0
 20
2030.0
 10
5940.0
 20
2030.0
 10
5940.0
 20
2970.0
 10
4000.0
 20
2970.0
  0
TEXT
  5
44
330
17
100
AcDbEntity
  8
TEXT
100
AcDbText
 10
4020.0
 20
2050.0
 30
0.0
 40
25.0
  1
LD  1940x940x18  oak
 11
4020.0
 21
2050.0
 31
0.0
100
AcDbText
  0
LWPOLYLINE
  5
45
330
17
100
AcDbEntity
  8
CUT
100
AcDbPolyline
 90
4
 70
1
 10
6000.0
 20
2030.0
 10
7940.0
 20
2030.0
 10
7940.0
 20
2212.0
 10
6000.0
 20
2212.0
  0
TEXT
  5
46
330
17
100
AcDbEntity
  8
TEXT
100
AcDbText
 10
6020.0
 20
2050.0
 30
0.0
 40
25.0
  1
B1  1940x182x18  oak
 11
6020.0
 21
2050.0
 31
0.0
100
AcDbText
  0
LWPOLYLINE
  5
47
330
17
100
AcDbEntity
  8
CUT
100
AcDbPolyline
 90
4
 70
1
 10
0.0
 20
3050.0
 10
1940.0
 20
3050.0
 10
1940.0
 20
3232.0
 10
0.0
 20
3232.0
  0
TEXT
  5
48
330
17
100
AcDbEntity
  8
TEXT
100
AcDbText
 10
20.0
 20
3070.0
 30
0.0
 40
25.0
  1
B2  1940x182x18  oak
 11
20.0
 21
3070.0
 31
0.0
100
AcDbText
  0
LWPOLYLINE
  5
49
330
17
100
AcDbEntity
  8
CUT
100
AcDbPolyline
 90
4
 70
1
 10
2000.0
 20
3050.0
 10
3940.0
 20
3050.0
 10
3940.0
 20
3232.0
 10
2000.0
 20
3232.0
  0
TEXT
  5
4A
330
17
100
AcDbEntity
  8
TEXT
100
AcDbText
 10
2020.0
 20
3070.0
 30
0.0
 40
25.0
  1
B3  1940x182x18  oak
 11
2020.0
 21
3070.0
 31
0.0
100
AcDbText
  0
LWPOLYLINE
  5
4B
330
17
100
AcDbEntity
  8
CUT
100
AcDbPolyline
 90
4
 70
1
 10
4000.0
 20
3050.0
 10
5940.0
 20
3050.0
 10
5940.0
 20
3150.0
 10
4000.0
 20
3150.0
  0
TEXT
  5
4C
330
17
100
AcDbEntity
  8
TEXT
100
AcDbText
 10
4020.0
 20
3070.0
 30
0.0
 40
25.0
  1
K1  1940x100x18  oak
 11
4020.0
 21
3070.0
 31
0.0
100
AcDbText
  0
LWPOLYLINE
  5
4D
330
17
100
AcDbEntity
  8
CUT
100
AcDbPolyline
 90
4
 70
1
 10
6000.0
 20
3050.0
 10
7940.0
 20
3050.0
 10
7940.0
 20
3150.0
 10
6000.0
 20
3150.0
  0
TEXT
  5
4E
330
17
100
AcDbEntity
  8
TEXT
100
AcDbText
 10
6020.0
 20
3070.0
 30
0.0
 40
25.0
  1
K2  1940x100x18  oak
 11
6020.0
 21
3070.0
 31
0.0
100
AcDbText
  0
LWPOLYLINE
  5
4F
330
17
100
AcDbEntity
  8
CUT
100
AcDbPolyline
 90
4
 70
1
 10
0.0
 20
3312.0
 10
1976.0
 20
3312.0
 10
1976.0
 20
4344.0
 10
0.0
 20
4344.0
  0
TEXT
  5
50
330
17
100
AcDbEntity
  8
TEXT
100
AcDbText
 10
20.0
 20
3332.0
 30
0.0
 40
25.0
  1
BK1  1976x1032x9  back
 11
20.0
 21
3332.0
 31
0.0
100
AcDbText
  0
LWPOLYLINE
  5
51
330
17
100
AcDbEntity
  8
CUT
100
AcDbPolyline
 90
4
 70
1
 10
2036.0
 20
3312.0
 10
4012.0
 20
3312.0
 10
4012.0
 20
4230.0
 10
2036.0
 20
4230.0
  0
TEXT
  5
52
330
17
100
AcDbEntity
  8
TEXT
100
AcDbText
 10
2056.0
 20
3332.0
 30
0.0
 40
25.0
  1
BK2  1976x918x9  back
 11
2056.0
 21
3332.0
 31
0.0
100
AcDbText
  0
LWPOLYLINE
  5
53
330
17
100
AcDbEntity
  8
CUT
100
AcDbPolyline
 90
4
 70
1
 10
4072.0
 20
3312.0
 10
6012.0
 20
3312.0
 10
6012.0
 20
3512.0
 10
4072.0
 20
3512.0
  0
TEXT
  5
54
330
17
100
AcDbEntity
  8
TEXT
100
AcDbText
 10
4092.0
 20
3332.0
 30
0.0
 40
25.0
  1
US  1940x200x18  oak
 11
4092.0
 21
3332.0
 31
0.0
100
AcDbText
  0
LWPOLYLINE
  5
55
330
17
100
AcDbEntity
  8
CUT
100
AcDbPolyline
 90
4
 70
1
 10
0.0
 20
4424.0
 10
200.0
 20
4424.0
 10
200.0
 20
4688.0
 10
0.0
 20
4688.0
  0
TEXT
  5
56
330
17
100
AcDbEntity
  8
TEXT
100
AcDbText
 10
20.0
 20
4444.0
 30
0.0
 40
25.0
  1
UD1  200x264x18  oak
 11
20.0
 21
4444.0
 31
0.0
100
AcDbText
  0
LWPOLYLINE
  5
57
330
17
100
AcDbEntity
  8
CUT
100
AcDbPolyline
 90
4
 70
1
 10
260.0
 20
4424.0
 10
460.0
 20
4424.0
 10
460.0
 20
4688.0
 10
260.0
 20
4688.0
  0
TEXT
  5
58
330
17
100
AcDbEntity
  8
TEXT
100
AcDbText
 10
280.0
 20
4444.0
 30
0.0
 40
25.0
  1
UD2  200x264x18  oak
 11
280.0
 21
4444.0
 31
0.0
100
AcDbText
  0
LWPOLYLINE
  5
59
330
17
100
AcDbEntity
  8
CUT
100
AcDbPolyline
 90
4
 70
1
 10
520.0
 20
4424.0
 10
720.0
 20
4424.0
 10
720.0
 20
4688.0
 10
520.0
 20
4688.0
  0
TEXT
  5
5A
330
17
100
AcDbEntity
  8
TEXT
100
AcDbText
 10
540.0
 20
4444.0
 30
0.0
 40
25.0
  1
UD3  200x264x18  oak
 11
540.0
 21
4444.0
 31
0.0
100
AcDbText
  0
LWPOLYLINE
  5
5B
330
17
100
AcDbEntity
  8
CUT
100
AcDbPolyline
 90
4
 70
1
 10
780.0
 20
4424.0
 10
980.0
 20
4424.0
 10
980.0
 20
5024.0
 10
780.0
 20
5024.0
  0
TEXT
  5
5C
330
17
100
AcDbEntity
  8
TEXT
100
AcDbText
 10
800.0
 20
4444.0
 30
0.0
 40
25.0
  1
UP  200x600x18  oak
 11
800.0
 21
4444.0
 31
0.0
100
AcDbText
  0
LWPOLYLINE
  5
5D
330
17
100
AcDbEntity
  8
CUT
100
AcDbPolyline
 90
4
 70
1
 10
1040.0
 20
4424.0
 10
2980.0
 20
4424.0
 10
2980.0
 20
4574.0
 10
1040.0
 20
4574.0
  0
TEXT
  5
5E
330
17
100
AcDbEntity
  8
TEXT
100
AcDbText
 10
1060.0
 20
4444.0
 30
0.0
 40
25.0
  1
LS  1940x150x18  oak
 11
1060.0
 21
4444.0
 31
0.0
100
AcDbText
  0
LWPOLYLINE
  5
5F
330
17
100
AcDbEntity
  8
CUT
100
AcDbPolyline
 90
4
 70
1
 10
3040.0
 20
4424.0
 10
3190.0
 20
4424.0
 10
3190.0
 20
4604.0
 10
3040.0
 20
4604.0
  0
TEXT
  5
60
330
17
100
AcDbEntity
  8
TEXT
100
AcDbText
 10
3060.0
 20
4444.0
 30
0.0
 40
25.0
  1
LD1  150x180x18  oak
 11
3060.0
 21
4444.0
 31
0.0
100
AcDbText
  0
LWPOLYLINE
  5
61
330
17
100
AcDbEntity
  8
CUT
100
AcDbPolyline
 90
4
 70
1
 10
3250.0
 20
4424.0
 10
3400.0
 20
4424.0
 10
3400.0
 20
4604.0
 10
3250.0
 20
4604.0
  0
TEXT
  5
62
330
17
100
AcDbEntity
  8
TEXT
100
AcDbText
 10
3270.0
 20
4444.0
 30
0.0
 40
25.0
  1
LD2  150x180x18  oak
 11
3270.0
 21
4444.0
 31
0.0
100
AcDbText
  0
LWPOLYLINE
  5
63
330
17
100
AcDbEntity
  8
CUT
100
AcDbPolyline
 90
4
 70
1
 10
3460.0
 20
4424.0
 10
3610.0
 20
4424.0
 10
3610.0
 20
4604.0
 10
3460.0
 20
4604.0
  0
TEXT
  5
64
330
17
100
AcDbEntity
  8
TEXT
100
AcDbText
 10
3480.0
 20
4444.0
 30
0.0
 40
25.0
  1
LD3  150x180x18  oak
 11
3480.0
 21
4444.0
 31
0.0
100
AcDbText
  0
LWPOLYLINE
  5
65
330
17
100
AcDbEntity
  8
CUT
100
AcDbPolyline
 90
4
 70
1
 10
3670.0
 20
4424.0
 10
3820.0
 20
4424.0
 10
3820.0
 20
4944.0
 10
3670.0
 20
4944.0
  0
TEXT
  5
66
330
17
100
AcDbEntity
  8
TEXT
100
AcDbText
 10
3690.0
 20
4444.0
 30
0.0
 40
25.0
  1
LP  150x520x18  oak
 11
3690.0
 21
4444.0
 31
0.0
100
AcDbText
  0
LWPOLYLINE
  5
67
330
17
100
AcDbEntity
  8
CUT
100
AcDbPolyline
 90
4
 70
1
 10
3880.0
 20
4424.0
 10
4312.0
 20
4424.0
 10
4312.0
 20
5246.0
 10
3880.0
 20
5246.0
  0
TEXT
  5
68
330
17
100
AcDbEntity
  8
TEXT
100
AcDbText
 10
3900.0
 20
4444.0
 30
0.0
 40
25.0
  1
SW0  432x822x18  oak
 11
3900.0
 21
4444.0
 31
0.0
100
AcDbText
  0
LWPOLYLINE
  5
69
330
17
100
AcDbEntity
  8
CUT
100
AcDbPolyline
 90
4
 70
1
 10
4372.0
 20
4424.0
 10
4804.0
 20
4424.0
 10
4804.0
 20
5246.0
 10
4372.0
 20
5246.0
  0
TEXT
  5
6A
330
17
100
AcDbEntity
  8
TEXT
100
AcDbText
 10
4392.0
 20
4444.0
 30
0.0
 40
25.0
  1
SW1  432x822x18  oak
 11
4392.0
 21
4444.0
 31
0.0
100
AcDbText
  0
LWPOLYLINE
  5
6B
330
17
100
AcDbEntity
  8
CUT
100
AcDbPolyline
 90
4
 70
1
 10
4864.0
 20
4424.0
 10
5296.0
 20
4424.0
 10
5296.0
 20
5036.0
 10
4864.0
 20
5036.0
  0
TEXT
  5
6C
330
17
100
AcDbEntity
  8
TEXT
100
AcDbText
 10
4884.0
 20
4444.0
 30
0.0
 40
25.0
  1
SW2  432x612x18  oak
 11
4884.0
 21
4444.0
 31
0.0
100
AcDbText
  0
LWPOLYLINE
  5
6D
330
17
100
AcDbEntity
  8
CUT
100
AcDbPolyline
 90
4
 70
1
 10
5356.0
 20
4424.0
 10
5788.0
 20
4424.0
 10
5788.0
 20
4826.0
 10
5356.0
 20
4826.0
  0
TEXT
  5
6E
330
17
100
AcDbEntity
  8
TEXT
100
AcDbText
 10
5376.0
 20
4444.0
 30
0.0
 40
25.0
  1
SW3  432x402x18  oak
 11
5376.0
 21
4444.0
 31
0.0
100
AcDbText
  0
LWPOLYLINE
  5
6F
330
17
100
AcDbEntity
  8
CUT
100
AcDbPolyline
 90
4
 70
1
 10
5848.0
 20
4424.0
 10
6280.0
 20
4424.0
 10
6280.0
 20
4616.0
 10
5848.0
 20
4616.0
  0
TEXT
  5
70
330
17
100
AcDbEntity
  8
TEXT
100
AcDbText
 10
5868.0
 20
4444.0
 30
0.0
 40
25.0
  1
SW4  432x192x18  oak
 11
5868.0
 21
4444.0
 31
0.0
100
AcDbText
  0
LWPOLYLINE
  5
71
330
17
100
AcDbEntity
  8
CUT
100
AcDbPolyline
 90
4
 70
1
 10
0.0
 20
5326.0
 10
260.0
 20
5326.0
 10
260.0
 20
5758.0
 10
0.0
 20
5758.0
  0
TEXT
  5
72
330
17
100
AcDbEntity
  8
TEXT
100
AcDbText
 10
20.0
 20
5346.0
 30
0.0
 40
25.0
  1
ST0  260x432x18  oak
 11
20.0
 21
5346.0
 31
0.0
100
AcDbText
  0
LWPOLYLINE
  5
73
330
17
100
AcDbEntity
  8
CUT
100
AcDbPolyline
 90
4
 70
1
 10
320.0
 20
5326.0
 10
580.0
 20
5326.0
 10
580.0
 20
5758.0
 10
320.0
 20
5758.0
  0
TEXT
  5
74
330
17
100
AcDbEntity
  8
TEXT
100
AcDbText
 10
340.0
 20
5346.0
 30
0.0
 40
25.0
  1
ST1  260x432x18  oak
 11
340.0
 21
5346.0
 31
0.0
100
AcDbText
  0
LWPOLYLINE
  5
75
330
17
100
AcDbEntity
  8
CUT
100
AcDbPolyline
 90
4
 70
1
 10
640.0
 20
5326.0
 10
900.0
 20
5326.0
 10
900.0
 20
5758.0
 10
640.0
 20
5758.0
  0
TEXT
  5
76
330
17
100
AcDbEntity
  8
TEXT
100
AcDbText
 10
660.0
 20
5346.0
 30
0.0
 40
25.0
  1
ST2  260x432x18  oak
 11
660.0
 21
5346.0
 31
0.0
100
AcDbText
  0
LWPOLYLINE
  5
77
330
17
100
AcDbEntity
  8
CUT
100
AcDbPolyline
 90
4
 70
1
 10
960.0
 20
5326.0
 10
1202.0
 20
5326.0
 10
1202.0
 20
5758.0
 10
960.0
 20
5758.0
  0
TEXT
  5
78
330
17
100
AcDbEntity
  8
TEXT
100
AcDbText
 10
980.0
 20
5346.0
 30
0.0
 40
25.0
  1
ST3  242x432x18  oak
 11
980.0
 21
5346.0
 31
0.0
100
AcDbText
  0
LWPOLYLINE
  5
79
330
17
100
AcDbEntity
  8
CUT
100
AcDbPolyline
 90
7
 70
1
 10
1262.0
 20
5326.0
 10
2302.0
 20
5326.0
 10
2302.0
 20
5657.334884767377
 42
0.22660926006700818
 10
2279.7002264252574
 20
5704.0113555796
 10
1522.0
 20
6316.0
 10
1370.640753703993
 20
6525.574341025241
 42
0.7276253825475462
 10
1262.0
 20
6490.444907794579
  0
TEXT
  5
7A
330
17
100
AcDbEntity
  8
TEXT
100
AcDbText
 10
1282.0
 20
5346.0
 30
0.0
 40
25.0
  1
SG  1040x1224x18  white
 11
1282.0
 21
5346.0
 31
0.0
100
AcDbText
  0
LWPOLYLINE
  5
7B
330
17
100
AcDbEntity
  8
CUT
100
AcDbPolyline
 90
4
 70
1
 10
2362.0
 20
5326.0
 10
2600.0
 20
5326.0
 10
2600.0
 20
6136.0
 10
2362.0
 20
6136.0
  0
TEXT
  5
7C
330
17
100
AcDbEntity
  8
TEXT
100
AcDbText
 10
2382.0
 20
5346.0
 30
0.0
 40
25.0
  1
DF0  238x810x18  oak
 11
2382.0
 21
5346.0
 31
0.0
100
AcDbText
  0
LWPOLYLINE
  5
7D
330
17
100
AcDbEntity
  8
CUT
100
AcDbPolyline
 90
4
 70
1
 10
2660.0
 20
5326.0
 10
3010.0
 20
5326.0
 10
3010.0
 20
5576.0
 10
2660.0
 20
5576.0
  0
TEXT
  5
7E
330
17
100
AcDbEntity
  8
TEXT
100
AcDbText
 10
2680.0
 20
5346.0
 30
0.0
 40
25.0
  1
DS0L  350x250x15  drawer
 11
2680.0
 21
5346.0
 31
0.0
100
AcDbText
  0
LWPOLYLINE
  5
7F
330
17
100
AcDbEntity
  8
CUT
100
AcDbPolyline
 90
4
 70
1
 10
3070.0
 20
5326.0
 10
3420.0
 20
5326.0
 10
3420.0
 20
5576.0
 10
3070.0
 20
5576.0
  0
TEXT
  5
80
330
17
100
AcDbEntity
  8
TEXT
100
AcDbText
 10
3090.0
 20
5346.0
 30
0.0
 40
25.0
  1
DS0R  350x250x15  drawer
 11
3090.0
 21
5346.0
 31
0.0
100
AcDbText
  0
LWPOLYLINE
  5
81
330
17
100
AcDbEntity
  8
CUT
100
AcDbPolyline
 90
4
 70
1
 10
3480.0
 20
5326.0
 10
3666.0
 20
5326.0
 10
3666.0
 20
5576.0
 10
3480.0
 20
5576.0
  0
TEXT
  5
82
330
17
100
AcDbEntity
  8
TEXT
100
AcDbText
 10
3500.0
 20
5346.0
 30
0.0
 40
25.0
  1
DI0  186x250x15  drawer
 11
3500.0
 21
5346.0
 31
0.0
100
AcDbText
  0
LWPOLYLINE
  5
83
330
17
100
AcDbEntity
  8
CUT
100
AcDbPolyline
 90
4
 70
1
 10
3726.0
 20
5326.0
 10
3912.0
 20
5326.0
 10
3912.0
 20
5576.0
 10
3726.0
 20
5576.0
  0
TEXT
  5
84
330
17
100
AcDbEntity
  8
TEXT
100
AcDbText
 10
3746.0
 20
5346.0
 30
0.0
 40
25.0
  1
DK0  186x250x15  drawer
 11
3746.0
 21
5346.0
 31
0.0
100
AcDbText
  0
LWPOLYLINE
  5
85
330
17
100
AcDbEntity
  8
CUT
100
AcDbPolyline
 90
4
 70
1
 10
3972.0
 20
5326.0
 10
4188.0
 20
5326.0
 10
4188.0
 20
5676.0
 10
3972.0
 20
5676.0
  0
TEXT
  5
86
330
17
100
AcDbEntity
  8
TEXT
100
AcDbText
 10
3992.0
 20
5346.0
 30
0.0
 40
25.0
  1
DB0  216x350x6  hdf
 11
3992.0
 21
5346.0
 31
0.0
100
AcDbText
  0
LWPOLYLINE
  5
87
330
17
100
AcDbEntity
  8
CUT
100
AcDbPolyline
 90
4
 70
1
 10
4248.0
 20
5326.0
 10
4486.0
 20
5326.0
 10
4486.0
 20
5926.0
 10
4248.0
 20
5926.0
  0
TEXT
  5
88
330
17
100
AcDbEntity
  8
TEXT
100
AcDbText
 10
4268.0
 20
5346.0
 30
0.0
 40
25.0
  1
DF1  238x600x18  oak
 11
4268.0
 21
5346.0
 31
0.0
100
AcDbText
  0
LWPOLYLINE
  5
89
330
17
100
AcDbEntity
  8
CUT
100
AcDbPolyline
 90
4
 70
1
 10
4546.0
 20
5326.0
 10
4896.0
 20
5326.0
 10
4896.0
 20
5576.0
 10
4546.0
 20
5576.0
  0
TEXT
  5
8A
330
17
100
AcDbEntity
  8
TEXT
100
AcDbText
 10
4566.0
 20
5346.0
 30
0.0
 40
25.0
  1
DS1L  350x250x15  drawer
 11
4566.0
 21
5346.0
 31
0.0
100
AcDbText
  0
LWPOLYLINE
  5
8B
330
17
100
AcDbEntity
  8
CUT
100
AcDbPolyline
 90
4
 70
1
 10
4956.0
 20
5326.0
 10
5306.0
 20
5326.0
 10
5306.0
 20
5576.0
 10
4956.0
 20
5576.0
  0
TEXT
  5
8C
330
17
100
AcDbEntity
  8
TEXT
100
AcDbText
 10
4976.0
 20
5346.0
 30
0.0
 40
25.0
  1
DS1R  350x250x15  drawer
 11
4976.0
 21
5346.0
 31
0.0
100
AcDbText
  0
LWPOLYLINE
  5
8D
330
17
100
AcDbEntity
  8
CUT
100
AcDbPolyline
 90
4
 70
1
 10
5366.0
 20
5326.0
 10
5552.0
 20
5326.0
 10
5552.0
 20
5576.0
 10
5366.0
 20
5576.0
  0
TEXT
  5
8E
330
17
100
AcDbEntity
  8
TEXT
100
AcDbText
 10
5386.0
 20
5346.0
 30
0.0
 40
25.0
  1
DI1  186x250x15  drawer
 11
5386.0
 21
5346.0
 31
0.0
100
AcDbText
  0
LWPOLYLINE
  5
8F
330
17
100
AcDbEntity
  8
CUT
100
AcDbPolyline
 90
4
 70
1
 10
5612.0
 20
5326.0
 10
5798.0
 20
5326.0
 10
5798.0
 20
5576.0
 10
5612.0
 20
5576.0
  0
TEXT
  5
90
330
17
100
AcDbEntity
  8
TEXT
100
AcDbText
 10
5632.0
 20
5346.0
 30
0.0
 40
25.0
  1
DK1  186x250x15  drawer
 11
5632.0
 21
5346.0
 31
0.0
100
AcDbText
  0
LWPOLYLINE
  5
91
330
17
100
AcDbEntity
  8
CUT
100
AcDbPolyline
 90
4
 70
1
 10
5858.0
 20
5326.0
 10
6074.0
 20
5326.0
 10
6074.0
 20
5676.0
 10
5858.0
 20
5676.0
  0
TEXT
  5
92
330
17
100
AcDbEntity
  8
TEXT
100
AcDbText
 10
5878.0
 20
5346.0
 30
0.0
 40
25.0
  1
DB1  216x350x6  hdf
 11
5878.0
 21
5346.0
 31
0.0
100
AcDbText
  0
LWPOLYLINE
  5
93
330
17
100
AcDbEntity
  8
CUT
100
AcDbPolyline
 90
4
 70
1
 10
0.0
 20
6630.0
 10
238.0
 20
6630.0
 10
238.0
 20
7020.0
 10
0.0
 20
7020.0
  0
TEXT
  5
94
330
17
100
AcDbEntity
  8
TEXT
100
AcDbText
 10
20.0
 20
6650.0
 30
0.0
 40
25.0
  1
DF2  238x390x18  oak
 11
20.0
 21
6650.0
 31
0.0
100
AcDbText
  0
LWPOLYLINE
  5
95
330
17
100
AcDbEntity
  8
CUT
100
AcDbPolyline
 90
4
 70
1
 10
298.0
 20
6630.0
 10
648.0
 20
6630.0
 10
648.0
 20
6880.0
 10
298.0
 20
6880.0
  0
TEXT
  5
96
330
17
100
AcDbEntity
  8
TEXT
100
AcDbText
 10
318.0
 20
6650.0
 30
0.0
 40
25.0
  1
DS2L  350x250x15  drawer
 11
318.0
 21
6650.0
 31
0.0
100
AcDbText
  0
LWPOLYLINE
  5
97
330
17
100
AcDbEntity
  8
CUT
100
AcDbPolyline
 90
4
 70
1
 10
708.0
 20
6630.0
 10
1058.0
 20
6630.0
 10
1058.0
 20
6880.0
 10
708.0
 20
6880.0
  0
TEXT
  5
98
330
17
100
AcDbEntity
  8
TEXT
100
AcDbText
 10
728.0
 20
6650.0
 30
0.0
 40
25.0
  1
DS2R  350x250x15  drawer
 11
728.0
 21
6650.0
 31
0.0
100
AcDbText
  0
LWPOLYLINE
  5
99
330
17
100
AcDbEntity
  8
CUT
100
AcDbPolyline
 90
4
 70
1
 10
1118.0
 20
6630.0
 10
1304.0
 20
6630.0
 10
1304.0
 20
6880.0
 10
1118.0
 20
6880.0
  0
TEXT
  5
9A
330
17
100
AcDbEntity
  8
TEXT
100
AcDbText
 10
1138.0
 20
6650.0
 30
0.0
 40
25.0
  1
DI2  186x250x15  drawer
 11
1138.0
 21
6650.0
 31
0.0
100
AcDbText
  0
LWPOLYLINE
  5
9B
330
17
100
AcDbEntity
  8
CUT
100
AcDbPolyline
 90
4
 70
1
 10
1364.0
 20
6630.0
 10
1550.0
 20
6630.0
 10
1550.0
 20
6880.0
 10
1364.0
 20
6880.0
  0
TEXT
  5
9C
330
17
100
AcDbEntity
  8
TEXT
100
AcDbText
 10
1384.0
 20
6650.0
 30
0.0
 40
25.0
  1
DK2  186x250x15  drawer
 11
1384.0
 21
6650.0
 31
0.0
100
AcDbText
  0
LWPOLYLINE
  5
9D
330
17
100
AcDbEntity
  8
CUT
100
AcDbPolyline
 90
4
 70
1
 10
1610.0
 20
6630.0
 10
1826.0
 20
6630.0
 10
1826.0
 20
6980.0
 10
1610.0
 20
6980.0
  0
TEXT
  5
9E
330
17
100
AcDbEntity
  8
TEXT
100
AcDbText
 10
1630.0
 20
6650.0
 30
0.0
 40
25.0
  1
DB2  216x350x6  hdf
 11
1630.0
 21
6650.0
 31
0.0
100
AcDbText
  0
LWPOLYLINE
  5
9F
330
17
100
AcDbEntity
  8
CUT
100
AcDbPolyline
 90
4
 70
1
 10
1886.0
 20
6630.0
 10
2106.0
 20
6630.0
 10
2106.0
 20
6810.0
 10
1886.0
 20
6810.0
  0
TEXT
  5
A0
330
17
100
AcDbEntity
  8
TEXT
100
AcDbText
 10
1906.0
 20
6650.0
 30
0.0
 40
25.0
  1
DF3  220x180x18  oak
 11
1906.0
 21
6650.0
 31
0.0
100
AcDbText
  0
LWPOLYLINE
  5
A1
330
17
100
AcDbEntity
  8
CUT
100
AcDbPolyline
 90
4
 70
1
 10
2166.0
 20
6630.0
 10
2516.0
 20
6630.0
 10
2516.0
 20
6762.0
 10
2166.0
 20
6762.0
  0
TEXT
  5
A2
330
17
100
AcDbEntity
  8
TEXT
100
AcDbText
 10
2186.0
 20
6650.0
 30
0.0
 40
25.0
  1
DS3L  350x132x15  drawer
 11
2186.0
 21
6650.0
 31
0.0
100
AcDbText
  0
LWPOLYLINE
  5
A3
330
17
100
AcDbEntity
  8
CUT
100
AcDbPolyline
 90
4
 70
1
 10
2576.0
 20
6630.0
 10
2926.0
 20
6630.0
 10
2926.0
 20
6762.0
 10
2576.0
 20
6762.0
  0
TEXT
  5
A4
330
17
100
AcDbEntity
  8
TEXT
100
AcDbText
 10
2596.0
 20
6650.0
 30
0.0
 40
25.0
  1
DS3R  350x132x15  drawer
 11
2596.0
 21
6650.0
 31
0.0
100
AcDbText
  0
LWPOLYLINE
  5
A5
330
17
100
AcDbEntity
  8
CUT
100
AcDbPolyline
 90
4
 70
1
 10
2986.0
 20
6630.0
 10
3154.0
 20
6630.0
 10
3154.0
 20
6762.0
 10
2986.0
 20
6762.0
  0
TEXT
  5
A6
330
17
100
AcDbEntity
  8
TEXT
100
AcDbText
 10
3006.0
 20
6650.0
 30
0.0
 40
25.0
  1
DI3  168x132x15  drawer
 11
3006.0
 21
6650.0
 31
0.0
100
AcDbText
  0
LWPOLYLINE
  5
A7
330
17
100
AcDbEntity
  8
CUT
100
AcDbPolyline
 90
4
 70
1
 10
3214.0
 20
6630.0
 10
3382.0
 20
6630.0
 10
3382.0
 20
6762.0
 10
3214.0
 20
6762.0
  0
TEXT
  5
A8
330
17
100
AcDbEntity
  8
TEXT
100
AcDbText
 10
3234.0
 20
6650.0
 30
0.0
 40
25.0
  1
DK3  168x132x15  drawer
 11
3234.0
 21
6650.0
 31
0.0
100
AcDbText
  0
LWPOLYLINE
  5
A9
330
17
100
AcDbEntity
  8
CUT
100
AcDbPolyline
 90
4
 70
1
 10
3442.0
 20
6630.0
 10
3640.0
 20
6630.0
 10
3640.0
 20
6980.0
 10
3442.0
 20
6980.0
  0
TEXT
  5
AA
330
17
100
AcDbEntity
  8
TEXT
100
AcDbText
 10
3462.0
 20
6650.0
 30
0.0
 40
25.0
  1
DB3  198x350x6  hdf
 11
3462.0
 21
6650.0
 31
0.0
100
AcDbText
  0
ENDSEC
  0
SECTION
  2
OBJECTS
  0
DICTIONARY
  5
A
330
0
100
AcDbDictionary
281
1
  3
ACAD_COLOR
350
B
  3
ACAD_GROUP
350
C
  3
ACAD_LAYOUT
350
D
  3
ACAD_MATERIAL
350
E
  3
ACAD_MLEADERSTYLE
350
F
  3
ACAD_MLINESTYLE
350
10
  3
ACAD_PLOTSETTINGS
350
11
  3
ACAD_PLOTSTYLENAME
350
12
  3
ACAD_SCALELIST
350
14
  3
ACAD_TABLESTYLE
350
15
  3
ACAD_VISUALSTYLE
350
16
  3
EZDXF_META
350
2D
  0
DICTIONARY
  5
B
330
A
100
AcDbDictionary
281
1
  0
DICTIONARY
  5
C
330
A
100
AcDbDictionary
281
1
  0
DICTIONARY
  5
D
330
A
100
AcDbDictionary
281
1
  3
Model
350
1A
  3
Layout1
350
1E
  0
DICTIONARY
  5
E
330
A
100
AcDbDictionary
281
1
  3
ByBlock
350
1F
  3
ByLayer
350
20
  3
Global
350
21
  0
DICTIONARY
  5
F
330
A
100
AcDbDictionary
281
1
  3
Standard
350
2C
  0
DICTIONARY
  5
10
330
A
100
AcDbDictionary
281
1
  3
Standard
350
22
  0
DICTIONARY
  5
11
330
A
100
AcDbDictionary
281
1
  0
ACDBDICTIONARYWDFLT
  5
12
330
A
100
AcDbDictionary
281
1
  3
Normal
350
13
100
AcDbDictionaryWithDefault
340
13
  0
ACDBPLACEHOLDER
  5
13
330
12
  0
DICTIONARY
  5
14
330
A
100
AcDbDictionary
281
1
  0
DICTIONARY
  5
15
330
A
100
AcDbDictionary
281
1
  0
DICTIONARY
  5
16
330
A
100
AcDbDictionary
281
1
  0
LAYOUT
  5
1A
330
D
100
AcDbPlotSettings
  1

  4
A3
  6

 40
7.5
 41
20.0
 42
7.5
 43
20.0
 44
420.0
 45
297.0
 46
0.0
 47
0.0
 48
0.0
 49
0.0
140
0.0
141
0.0
142
1.0
143
1.0
 70
1024
 72
1
 73
0
 74
5
  7

 75
16
 76
0
 77
2
 78
300
147
1.0
148
0.0
149
0.0
100
AcDbLayout
  1
Model
 70
1
 71
0
 10
0.0
 20
0.0
 11
420.0
 21
297.0
 12
0.0
 22
0.0
 32
0.0
 14
1e+20
 24
1e+20
 34
1e+20
 15
-1e+20
 25
-1e+20
 35
-1e+20
146
0.0
 13
0.0
 23
0.0
 33
0.0
 16
1.0
 26
0.0
 36
0.0
 17
0.0
 27
1.0
 37
0.0
 76
1
330
17
  0
LAYOUT
  5
1E
330
D
100
AcDbPlotSettings
  1

  4
A3
  6

 40
7.5
 41
20.0
 42
7.5
 43
20.0
 44
420.0
 45
297.0
 46
0.0
 47
0.0
 48
0.0
 49
0.0
140
0.0
141
0.0
142
1.0
143
1.0
 70
0
 72
1
 73
0
 74
5
  7

 75
16
 76
0
 77
2
 78
300
147
1.0
148
0.0
149
0.0
100
AcDbLayout
  1
Layout1
 70
1
 71
1
 10
0.0
 20
0.0
 11
420.0
 21
297.0
 12
0.0
 22
0.0
 32
0.0
 14
1e+20
 24
1e+20
 34
1e+20
 15
-1e+20
 25
-1e+20
 35
-1e+20
146
0.0
 13
0.0
 23
0.0
 33
0.0
 16
1.0
 26
0.0
 36
0.0
 17
0.0
 27
1.0
 37
0.0
 76
1
330
1B
  0
MATERIAL
  5
1F
102
{ACAD_REACTORS
330
E
102
}
330
E
100
AcDbMaterial
  1
ByBlock
  2

 70
0
 40
1.0
 71
1
 41
1.0
 91
-1023410177
 42
1.0
 72
1
  3

 73
1
 74
1
 75
1
 44
0.5
 73
0
 45
1.0
 46
1.0
 77
1
  4

 78
1
 79
1
170
1
 48
1.0
171
1
  6

172
1
173
1
174
1
140
1.0
141
1.0
175
1
  7

176
1
177
1
178
1
143
1.0
179
1
  8

270
1
271
1
272
1
145
1.0
146
1.0
273
1
  9

274
1
275
1
276
1
 42
1.0
 72
1
  3

 73
1
 74
1
 75
1
 94
63
  0
MATERIAL
  5
20
102
{ACAD_REACTORS
330
E
102
}
330
E
100
AcDbMaterial
  1
ByLayer
  2

 70
0
 40
1.0
 71
1
 41
1.0
 91
-1023410177
 42
1.0
 72
1
  3

 73
1
 74
1
 75
1
 44
0.5
 73
0
 45
1.0
 46
1.0
 77
1
  4

 78
1
 79
1
170
1
 48
1.0
171
1
  6

172
1
173
1
174
1
140
1.0
141
1.0
175
1
  7

176
1
177
1
178
1
143
1.0
179
1
  8

270
1
271
1
272
1
145
1.0
146
1.0
273
1
  9

274
1
275
1
276
1
 42
1.0
 72
1
  3

 73
1
 74
1
 75
1
 94
63
  0
MATERIAL
  5
21
102
{ACAD_REACTORS
330
E
102
}
330
E
100
AcDbMaterial
  1
Global
  2

 70
0
 40
1.0
 71
1
 41
1.0
 91
-1023410177
 42
1.0
 72
1
  3

 73
1
 74
1
 75
1
 44
0.5
 73
0
 45
1.0
 46
1.0
 77
1
  4

 78
1
 79
1
170
1
 48
1.0
171
1
  6

172
1
173
1
174
1
140
1.0
141
1.0
175
1
  7

176
1
177
1
178
1
143
1.0
179
1
  8

270
1
271
1
272
1
145
1.0
146
1.0
273
1
  9

274
1
275
1
276
1
 42
1.0
 72
1
  3

 73
1
 74
1
 75
1
 94
63
  0
MLINESTYLE
  5
22
102
{ACAD_REACTORS
330
10
102
}
330
10
100
AcDbMlineStyle
  2
Standard
 70
0
  3

 62
256
 51
90.0
 52
90.0
 71
2
 49
0.5
 62
256
  6
BYLAYER
 49
-0.5
 62
256
  6
BYLAYER
  0
MLEADERSTYLE
  5
2C
102
{ACAD_REACTORS
330
F
102
}
330
F
100
AcDbMLeaderStyle
179
2
170
2
171
1
172
0
 90
2
 40
0.0
 41
0.0
173
1
 91
-1056964608
 92
-2
290
1
 42
2.0
291
1
 43
8.0
  3
Standard
 44
4.0
300

342
29
174
1
175
1
176
0
178
1
 93
-1056964608
 45
4.0
292
0
297
0
 46
4.0
 94
-1056964608
 47
1.0
 49
1.0
140
1.0
294
1
141
0.0
177
0
142
1.0
295
0
296
0
143
3.75
271
0
272
9
273
9
  0
DICTIONARY
  5
2D
330
A
100
AcDbDictionary
280
1
281
1
  3
CREATED_BY_EZDXF
350
2E
  3
WRITTEN_BY_EZDXF
350
AD
  0
DICTIONARYVAR
  5
2E
330
2D
100
DictionaryVariables
280
0
  1
1.4.4 @ 2026-10-06T17:34:50.907270+00:00
  0
DICTIONARYVAR
  5
AD
330
2D
100
DictionaryVariables
280
0
  1
1.4.4 @ 2026-10-06T17:34:51.305193+00:00
  0
ENDSEC
  0
EOF
